<svg xmlns="http://www.w3.org/2000/svg" viewBox="0 0 55.5 49.94"><defs><style>.cls-1{fill:#0071bc;}</style></defs><g id="Layer_2" data-name="Layer 2"><g id="Layer_1-2" data-name="Layer 1"><path class="cls-1" d="M27.49,30.63a12.88,12.88,0,0,1,1-5.44,20,20,0,0,1,6.29-7.89c3.77-2.78,7.88-4.66,12.71-4.33A8.72,8.72,0,0,1,54,16.4a7.12,7.12,0,0,1,1.42,5.26,15,15,0,0,1-1,4.46A16.87,16.87,0,0,1,50,32.35,31.27,31.27,0,0,1,46.9,34.8a18.72,18.72,0,0,1-10.55,3.41,9.3,9.3,0,0,1-6.61-2.56A6.87,6.87,0,0,1,27.49,30.63Zm8.84-.58c4.87-1,9.58-5.89,10.11-9.14-.93-.22-1.85-.46-2.78-.65a.58.58,0,0,0-.49.24A9.74,9.74,0,0,1,40,24.77a10.62,10.62,0,0,1-3.58,2.11l-.87.34Z"/><path class="cls-1" d="M9.17,24.6a18.68,18.68,0,0,1,6.74,1.52,24.55,24.55,0,0,1,6,3.71,13.27,13.27,0,0,1,1.56,1.53A21.24,21.24,0,0,1,27.14,37,11.13,11.13,0,0,1,28,43.58a7.29,7.29,0,0,1-3.65,5c-2.78,1.67-5.74,1.65-8.77.94a21.24,21.24,0,0,1-8.35-4.09,20.51,20.51,0,0,1-4-4.13A17.2,17.2,0,0,1,.33,35.12a8.17,8.17,0,0,1-.2-3.67,8,8,0,0,1,4.31-5.72A11.47,11.47,0,0,1,9.17,24.6Zm0,8a1.21,1.21,0,0,0,.08.36c.65,1.14,1.24,2.31,2,3.39A13.56,13.56,0,0,0,16,40.54a20.35,20.35,0,0,0,2.77,1.13c.15.06.53-.06.57-.18.27-.83.47-1.69.7-2.54l-.31-.15a11.33,11.33,0,0,1-7.28-6.58.51.51,0,0,0-.43-.27C11.09,32.16,10.12,32.4,9.13,32.65Z"/><path class="cls-1" d="M13.09,17.48a17,17,0,0,1-9-2.36A8.13,8.13,0,0,1,.35,10.49a6.07,6.07,0,0,1,1.4-6C4.15,1.59,7.48.6,11,.14a17.27,17.27,0,0,1,9.51,1.47A9.39,9.39,0,0,1,25.7,6.68a7,7,0,0,1-1.38,6.48C21.79,15.92,18.51,17,15,17.38c-.31,0-.62.08-.93.1S13.4,17.48,13.09,17.48Zm6.06-9.29c-.76-.55-1.47-1.11-2.23-1.62a.89.89,0,0,0-.7,0,7.33,7.33,0,0,1-6.32,0,.72.72,0,0,0-.6,0C8.53,7,7.8,7.59,7.06,8.14,8.72,10.56,16.14,11.29,19.15,8.19Z"/><path class="cls-1" d="M36.83,10.33a7.72,7.72,0,0,1-5.14-2.21,6.88,6.88,0,0,1-2.2-3.82,3.7,3.7,0,0,1,3-4.17,7.27,7.27,0,0,1,5.89,1.73,7.54,7.54,0,0,1,2.47,3.76A3.74,3.74,0,0,1,38,10.22C37.57,10.29,37.17,10.3,36.83,10.33Z"/><path class="cls-1" d="M45.74,41.23a7.64,7.64,0,0,1,4.48,1.17c1.7,1.12,2.61,2.7,1.52,4.78a4.79,4.79,0,0,1-2.83,2.18,9.37,9.37,0,0,1-6.83-.18,4.1,4.1,0,0,1-2.82-3.56,3.36,3.36,0,0,1,1.4-2.83A8,8,0,0,1,45.74,41.23Z"/></g></g></svg>