<svg xmlns="http://www.w3.org/2000/svg" viewBox="0 0 65.58 69.32"><defs><style>.cls-1{fill:#0071bc;}</style></defs><g id="Layer_2" data-name="Layer 2"><g id="Layer_1-2" data-name="Layer 1"><path class="cls-1" d="M10.07,58.54c-.44.11-.9.27-1.37.34A8.5,8.5,0,0,1,4.1,58,6.67,6.67,0,0,1,.15,52.42a9.21,9.21,0,0,1,2-7.84,6.43,6.43,0,0,1,4.51-2,14.87,14.87,0,0,1,8,1.61,1.27,1.27,0,0,0,1.77-.31c3-3.16,6.09-6.26,9.12-9.41,2.2-2.29,4.36-4.61,6.53-6.93s4.37-4.69,6.55-7c1-1,1.88-2.13,2.9-3.12a1.31,1.31,0,0,0,.3-1.81,16.09,16.09,0,0,1-1.51-9.68A6.94,6.94,0,0,1,45.54.27a8.7,8.7,0,0,1,6.55.83,7.39,7.39,0,0,1,3.38,6.39c0,1.06,0,2.12,0,3.28H56a30,30,0,0,1,4.25.19c2.68.48,4.17,2.45,4.88,4.85A9.81,9.81,0,0,1,64.64,23a6.54,6.54,0,0,1-5.75,3.81,15.09,15.09,0,0,1-8.08-1.65,1.09,1.09,0,0,0-1.54.23c-2.62,2.75-5.29,5.47-7.91,8.21-2.06,2.15-4.09,4.33-6.13,6.49-2.4,2.56-4.81,5.11-7.19,7.68-1.41,1.52-2.75,3.11-4.17,4.62a1,1,0,0,0-.18,1.3,17.47,17.47,0,0,1,1.71,8.89,6.93,6.93,0,0,1-6.72,6.7,8.7,8.7,0,0,1-5.11-.93c-2.39-1.39-3.32-3.6-3.49-6.22C10,61,10.07,59.77,10.07,58.54Zm8.3.1c-.3-1-.56-2.1-.91-3.12-.92-2.62-4.06-5.34-7.21-5.39-.69,0-1.25.15-1.31.88A1.1,1.1,0,0,0,10,52.35c3.72.4,5.71,2.81,6.16,6.4.09.72.28,1.3,1.07,1.27S18.3,59.41,18.37,58.64Zm37-39.41c.66.08,1.24-.16,1.28-.95s-.47-1-1.16-1.08a6.45,6.45,0,0,1-2.28-.64,7.53,7.53,0,0,1-3.91-6.09c0-.34-.65-.85-1-.9-.57-.07-.93.43-.9,1.06A8.77,8.77,0,0,0,55.33,19.23Z"/><path class="cls-1" d="M53.19,55.21c-.24.31-.42.76-.71.86a1.31,1.31,0,0,1-1.15-.17c-1-1-2-2.07-3-3.16a1,1,0,0,1,.19-1.55,1.46,1.46,0,0,1,1.36.13,38.49,38.49,0,0,1,2.78,2.93A4.44,4.44,0,0,1,53.19,55.21Z"/><path class="cls-1" d="M17.5,17.53c-.18.22-.34.6-.61.73a1.13,1.13,0,0,1-1,0c-1.12-1.11-2.21-2.26-3.21-3.47a1.18,1.18,0,0,1,.16-1.13A1.19,1.19,0,0,1,14,13.46c1.16,1.11,2.25,2.3,3.34,3.47C17.41,17,17.41,17.24,17.5,17.53Z"/><path class="cls-1" d="M42.59,62.36c-.28.25-.62.77-1,.81a1.33,1.33,0,0,1-1.07-.74,34.05,34.05,0,0,1-1.06-4.35A1.32,1.32,0,0,1,40.11,57a1.3,1.3,0,0,1,1.18.52C41.78,59,42.12,60.55,42.59,62.36Z"/><path class="cls-1" d="M11.88,26.27c0,1.14-.52,1.65-1.32,1.43a34.86,34.86,0,0,1-3.9-1.28A1.47,1.47,0,0,1,6,25.21c.07-.61.62-.87,1.29-.68,1.24.34,2.5.63,3.72,1C11.41,25.69,11.7,26.12,11.88,26.27Z"/><path class="cls-1" d="M26.29,11.7c-.28.26-.57.74-.91.78a1.27,1.27,0,0,1-1.09-.57,37.18,37.18,0,0,1-1.13-4.42,1.25,1.25,0,0,1,.69-1A1.24,1.24,0,0,1,25,6.93C25.47,8.43,25.83,10,26.29,11.7Z"/><path class="cls-1" d="M58.75,45c-1.74-.51-3.17-.87-4.55-1.37a1.24,1.24,0,0,1-.52-1.1c.13-.35.74-.81,1-.75a29,29,0,0,1,4.21,1.13,1.37,1.37,0,0,1,.52,1.18C59.39,44.52,58.91,44.84,58.75,45Z"/></g></g></svg>