<svg xmlns="http://www.w3.org/2000/svg" viewBox="0 0 45.76 46.48"><defs><style>.cls-1{fill:#0071bc;}</style></defs><g id="Layer_2" data-name="Layer 2"><g id="Layer_1-2" data-name="Layer 1"><path class="cls-1" d="M27,14.93a9.14,9.14,0,0,1,1.85-4.27,6.29,6.29,0,0,1,2.37-1.73A15.92,15.92,0,0,1,33,8.25,1.36,1.36,0,0,1,34.77,9a1.54,1.54,0,0,1-.85,1.86c-.75.32-1.53.57-2.24,1a3.91,3.91,0,0,0-1.86,2.76c.6-.23,1.12-.48,1.66-.63a7.41,7.41,0,0,1,8.72,3.77,13.44,13.44,0,0,1,1.7,5.35,17,17,0,0,1-1.44,9,1.4,1.4,0,0,1-.16.24c-2-1.56-4.27-1.32-6.56-1.08-3.24.34-6.48.62-9.72.92-2.41.23-4.82.45-7.23.69a.66.66,0,0,1-.79-.42,16.53,16.53,0,0,1-.76-12.79,9.7,9.7,0,0,1,2.38-3.86,7.24,7.24,0,0,1,8.67-1.23Z"/><path class="cls-1" d="M19.47,11.5a10.71,10.71,0,0,0-5.33,4.32,16.72,16.72,0,0,0-2.51,9.11,19.32,19.32,0,0,0,1.63,7.93c0,.07.05.15.1.31a8,8,0,0,0-4.13,1.08,6.58,6.58,0,0,0-2.64,3.52c-.73-.49-1.44-.9-2.08-1.42A12.36,12.36,0,0,1,2.23,19.74,11.76,11.76,0,0,0,4.49,13a7.54,7.54,0,0,1,5.93-7.39.66.66,0,0,0,.43-.43A5.58,5.58,0,0,1,14.9.61c.72-.23,1.46-.4,2.19-.57A1.34,1.34,0,0,1,18.72,1a1.37,1.37,0,0,1-1,1.66c-.86.27-1.72.53-2.56.87a2.52,2.52,0,0,0-1.63,2.07A7.64,7.64,0,0,1,19.47,11.5Z"/><path class="cls-1" d="M40.34,43.22a4.13,4.13,0,0,1-2.16,2.83,4.21,4.21,0,0,1-2.37.4l-11.08-1-2.21-.22c0-.89,0-1.75,0-2.62a1.51,1.51,0,0,0-.78-1.43,1.31,1.31,0,0,0-1.88,1.28c0,.81,0,1.62,0,2.52l-3.13-.28c-1.52-.14-3-.31-4.56-.44a3.1,3.1,0,0,1-3-3.06c0-.7,0-1.39,0-2.09a3.07,3.07,0,0,1,2.77-2.94c3.93-.38,7.87-.73,11.8-1.1l6.22-.6c.19,0,.39,0,.65,0,0,1.19,0,2.32,0,3.45a1.32,1.32,0,0,0,2,1.15,1.39,1.39,0,0,0,.64-1.27V34.1c1.16-.08,2.29-.25,3.41-.23a3.91,3.91,0,0,1,3.55,2.8c0,.13.08.25.15.45.79-.71,1.53-1.39,2.3-2a1.25,1.25,0,0,1,1.54-.13,1.23,1.23,0,0,1,.61,1.42,2.11,2.11,0,0,1-.53.83c-.5.5-1,1-1.7,1.55H44.2a1.4,1.4,0,0,1,1.56,1.36,1.62,1.62,0,0,1-1.57,1.47c-.47,0-.95,0-1.6,0,.62.56,1.14,1,1.61,1.48a2.4,2.4,0,0,1,.6.86,1.24,1.24,0,0,1-.55,1.44,1.29,1.29,0,0,1-1.56-.08c-.64-.53-1.24-1.11-1.87-1.66C40.68,43.49,40.53,43.37,40.34,43.22Z"/></g></g></svg>