<svg xmlns="http://www.w3.org/2000/svg" viewBox="0 0 349.03 286.4"><defs><style>.cls-1{fill:#026fb8;}.cls-2{fill:#016fb9;}.cls-3{fill:#0170ba;}.cls-4{fill:#026db5;}.cls-5{fill:#0170bb;}</style></defs><g id="Layer_2" data-name="Layer 2"><g id="Layer_1-2" data-name="Layer 1"><path class="cls-1" d="M180.9,30.24c62.45.08,112.75,50.1,112.76,112.15,0,62.5-50.4,113.38-112.29,113.32A113.19,113.19,0,0,1,68.16,142.15C68.34,80.76,119.3,30.17,180.9,30.24ZM183,48.57c-51.78-.66-94.62,39.09-95.63,92.32-1,50.3,37.86,94.75,93.22,95.17,51.6.39,93.75-39.88,94.11-93.25C275,91.83,235.46,50.33,183,48.57Z"/><path class="cls-2" d="M328.21,174.05c0-2.26,0-4.72,0-7.18-.09-5.23-2.13-7.56-7.42-8.16-2.3-.26-4.66-.1-7-.2-5.84-.27-8.3-2.7-7.66-8.56,1.28-11.58,2.94-23.12,4.45-34.68,3.66-27.9,6.87-55.87,11.24-83.65,1.47-9.34,5.75-18.26,9.08-27.24a6.17,6.17,0,0,1,8.09-4c3.73,1.15,5,4.19,4.94,7.82q-1.4,79-2.86,158c0,2-.73,4.06-.37,6a7.88,7.88,0,0,0,2.6,4.63,11.24,11.24,0,0,1,5,9.74c.2,27.5.52,55,.73,82.49,0,6.18-3.5,10-9.7,10.35-3.65.22-7.33.06-11,0-9,0-12.85-3.75-12.89-12.68q-.15-37-.26-74c0-.5,0-1,0-1.5C315.16,177.87,315.25,177.75,328.21,174.05Z"/><path class="cls-1" d="M67.7,44.46c0,11,.23,22,0,33-.49,19.07-12,32.22-29.58,34.39C17.66,114.34.42,99.65.16,79-.13,55.31.06,31.65.1,8,.11,2.93,2.25.18,6,.37c4.73.23,6,3.48,6,7.57,0,19.33.09,38.66,0,58,0,3.89,1.12,6.94,4.92,8.35,5,1.84,9.49-.7,10.61-5.93A28.78,28.78,0,0,0,28,62.4q0-27,0-54c0-3.37.43-6.42,4-7.83,4.51-1.79,8.63,1,8.83,6.33.27,6.82.12,13.66.12,20.49,0,12.83-.07,25.66,0,38.49,0,6.29,3.33,9.33,8.89,8.57,4.47-.62,6.32-3.2,6.32-9.12q0-27.24,0-54.48c0-1.33-.06-2.67,0-4,.31-3.76,2-6.55,6.08-6.51S68.09,3.05,68.09,7q0,18.75,0,37.49Z"/><path class="cls-3" d="M56.17,238.91c0,10,.06,20,0,30-.09,10.84-6.6,17.24-17.55,17.39-3.66.05-7.34.19-11,0-8.84-.44-15.39-7-15.44-15.81q-.19-32,0-64a14.91,14.91,0,0,1,13.7-15.19,82.85,82.85,0,0,1,15.43,0c9.63.9,14.78,6.84,14.86,16.63.09,10.33,0,20.67,0,31Z"/><path class="cls-4" d="M22.85,124.35H45.71v54.94H22.85Z"/><path class="cls-5" d="M261.62,142.33c.5,43.94-35.57,80.19-80.28,80.69-43.8.48-80.5-35.54-81-79.48a80.78,80.78,0,0,1,80.29-81.71C225,61.47,261.1,97.37,261.62,142.33Zm-147.13-2.55c-.23,5.7,1.94,8.87,6.19,9.05,4,.16,6.57-2.73,7.09-8,.09-.83.06-1.66.12-2.49A53,53,0,0,1,177,89.27c2.29-.16,5.09-.08,6.7-1.34,1.79-1.4,3.58-4.33,3.34-6.34s-2.72-4.31-4.79-5.29c-1.9-.91-4.57-.39-6.88-.2C142.39,78.77,115.85,106.53,114.49,139.78Z"/></g></g></svg>