<svg xmlns="http://www.w3.org/2000/svg" viewBox="0 0 73.66 37.12"><defs><style>.cls-1{fill:#0071bc;}</style></defs><g id="Layer_2" data-name="Layer 2"><g id="Layer_1-2" data-name="Layer 1"><path class="cls-1" d="M3,24.9V19.49C.7,18.5,0,16.94.74,14.63A12.82,12.82,0,0,1,5.26,8.48a3.69,3.69,0,0,1,1.32-.77,1.22,1.22,0,0,1,1.56.74c.29.73-.11,1.18-.65,1.6a11.44,11.44,0,0,0-4,5.29c-.46,1.28,0,1.95,1.4,2,1.79,0,3.58,0,5.36,0H68.32a6.58,6.58,0,0,0,1-.06,1.1,1.1,0,0,0,1-1.38,8.09,8.09,0,0,0-1.95-3.73,18.59,18.59,0,0,0-6.79-4.87C59.86,6.47,58,5.82,56.06,5c.07.38,0,.56.13.67a3.73,3.73,0,0,1,.36,4.24,4.21,4.21,0,0,1-4.16,2,4.26,4.26,0,0,1-3.93-3c-.69-1.86-1.53-3.67-2.33-5.49a.7.7,0,0,0-.43-.4c-1.66-.19-3.33-.34-5.25-.53a12.32,12.32,0,0,1,.63,1.15c.45,1,.9,2.1,1.31,3.16,1.14,2.92-1.54,5.31-4.36,5.07a4.22,4.22,0,0,1-3.93-3c-.73-2-1.6-3.87-2.46-5.79a.89.89,0,0,0-.73-.4c-1.48.12-2.95.3-4.42.45.16.41.3.76.45,1.1.33.77.69,1.53,1,2.31,1,2.39-.26,4.33-2.58,5.11-1.89.64-5-.29-5.65-2.78a24.38,24.38,0,0,0-1.29-3.16c-.21-.55-.45-.72-1.09-.58a2.55,2.55,0,0,1-1.61-.31A1,1,0,0,1,16,3.11a45.22,45.22,0,0,1,4.58-1.32A74,74,0,0,1,43.32.29,67.11,67.11,0,0,1,57.85,3.07a33.16,33.16,0,0,1,9.39,4.44,13.62,13.62,0,0,1,4.32,4.39,32.51,32.51,0,0,1,1.72,3.57c.46,1.14-.58,2.93-1.46,3.39a1.63,1.63,0,0,0-1,1.79c.09,1.23,0,2.47,0,3.71a1.06,1.06,0,0,0,.47.79C73.93,26.41,74.14,29,73,31.26a12.83,12.83,0,0,1-1.47,2.41A9.82,9.82,0,0,1,64.8,37a15,15,0,0,1-1.9.07q-26,0-52,0A11.83,11.83,0,0,1,4,35.32,8.32,8.32,0,0,1,.82,31.69,11.71,11.71,0,0,1,.18,30C-.41,27.71.43,25.93,3,24.9Zm33.87,2.83c-1.41,1.24-2.71,2.4-4,3.53s-2,1.18-3.43-.1C28.13,30,26.85,29,25.6,27.89a2.93,2.93,0,0,0-2.09-.69c-6.1,0-12.21,0-18.32,0-.33,0-.66,0-1,0A1.18,1.18,0,0,0,3,28.53a5.28,5.28,0,0,0,2,4.3,8.24,8.24,0,0,0,5.49,1.82q26.37,0,52.74,0a10.17,10.17,0,0,0,2.68-.35A6.63,6.63,0,0,0,70.81,29a1.66,1.66,0,0,0-1.8-1.8c-6.11.06-12.22.08-18.32,0a4.37,4.37,0,0,0-3.31,1.36c-1.23,1.16-2.52,2.25-3.83,3.31a1.51,1.51,0,0,1-1.92,0c-.54-.41-1-.9-1.54-1.34Zm-5.73,1.45,10.81-9.3H20.29ZM21.53,24.7l.09-.17c-1.54-1.33-3.15-2.6-4.61-4a3,3,0,0,0-2.39-.73c-2.64,0-5.28,0-7.92,0H5.84V24.7Zm30.37,0H67.82V19.79h-1c-2.66,0-5.33,0-8,0a2.44,2.44,0,0,0-2.18.82,12.26,12.26,0,0,1-1.55,1.3C54.07,22.76,53.08,23.65,51.9,24.68Zm-9.3,4.5L53.28,20c-2.38-.18-4.68-.19-7-.17a.88.88,0,0,0-.48.26c-1.36,1.13-2.72,2.25-4.06,3.39-.95.81-1.87,1.65-2.87,2.54ZM34.36,2.48c.32.67.59,1.17.8,1.68.59,1.43,1.16,2.88,1.75,4.31a1.58,1.58,0,0,0,1.81.94,1.31,1.31,0,0,0,1-1.64C39.07,6.18,38.4,4.58,37.7,3c-.1-.2-.34-.47-.53-.49C36.3,2.45,35.42,2.48,34.36,2.48ZM49.28,3.57C50,5.38,50.67,7,51.37,8.69a1.56,1.56,0,0,0,1.84.68,1.29,1.29,0,0,0,.92-1.57c-.33-.8-.63-1.61-1-2.39-.26-.52-.4-1.2-1.14-1.34Zm-28.47.72c.67,1.6,1.26,3.12,2,4.58a1.53,1.53,0,0,0,1.86.45,1.15,1.15,0,0,0,.62-1.52c-.49-1.38-1-2.72-1.59-4.09Z"/><path class="cls-1" d="M11.54,4.86c.88,0,1.43.49,1.41,1.25a1.29,1.29,0,0,1-1.4,1.2,1.27,1.27,0,0,1-1.37-1.24A1.21,1.21,0,0,1,11.54,4.86Z"/></g></g></svg>