<svg xmlns="http://www.w3.org/2000/svg" viewBox="0 0 52 41.87"><defs><style>.cls-1{fill:#0071bc;}</style></defs><g id="Layer_2" data-name="Layer 2"><g id="Layer_1-2" data-name="Layer 1"><path class="cls-1" d="M19.88,0a1.16,1.16,0,0,0-1.16,1.16V6.09a1.16,1.16,0,1,0,2.31,0V1.16A1.16,1.16,0,0,0,19.88,0ZM30.3,0a1.14,1.14,0,0,0-1.15,1.15V6.1a1.15,1.15,0,1,0,2.3,0V1.16A1.14,1.14,0,0,0,30.3,0ZM9,0A1.15,1.15,0,0,0,7.86,1.16V6.1a1.16,1.16,0,0,0,2.31,0V1.16A1.15,1.15,0,0,0,9,0ZM39.84,0a1.15,1.15,0,0,0-1.15,1.16V6.1A1.16,1.16,0,0,0,41,6.1V1.16A1.16,1.16,0,0,0,39.84,0ZM16.77,13.16h0a1.13,1.13,0,0,0-1.13,1.12v3.37a1.13,1.13,0,0,0,1.13,1.13h4.82a1.13,1.13,0,0,0,1.12-1.13V14.28a1.12,1.12,0,0,0-1.12-1.12Zm10.21,0h0a1.11,1.11,0,0,0-.79.33,1.13,1.13,0,0,0-.33.79v3.37a1.14,1.14,0,0,0,.33.8,1.11,1.11,0,0,0,.79.33H31.8a1.13,1.13,0,0,0,1.13-1.13V14.28a1.12,1.12,0,0,0-1.13-1.12Zm10.22,0h0a1.11,1.11,0,0,0-.79.33,1.13,1.13,0,0,0-.33.79v3.37a1.14,1.14,0,0,0,.33.8,1.11,1.11,0,0,0,.79.33H42a1.14,1.14,0,0,0,1.13-1.13V14.28A1.13,1.13,0,0,0,42,13.16Zm-30.62,0h0a1.13,1.13,0,0,0-1.12,1.12v3.37a1.13,1.13,0,0,0,1.12,1.13h4.83a1.13,1.13,0,0,0,1.12-1.13V14.28a1.12,1.12,0,0,0-1.12-1.12Zm0,8.37a1.12,1.12,0,0,0-.79.32,1.15,1.15,0,0,0-.33.8V26a1.11,1.11,0,0,0,.33.79,1.09,1.09,0,0,0,.79.33h4.83A1.12,1.12,0,0,0,12.53,26V22.65a1.12,1.12,0,0,0-1.12-1.12Zm10.19,0a1.13,1.13,0,0,0-.8.32,1.15,1.15,0,0,0-.33.8V26a1.11,1.11,0,0,0,.33.79,1.09,1.09,0,0,0,.8.33h4.82A1.12,1.12,0,0,0,22.71,26V22.65a1.12,1.12,0,0,0-1.12-1.12Zm10.21,0h0a1.1,1.1,0,0,0-.79.32,1.15,1.15,0,0,0-.33.8V26a1.11,1.11,0,0,0,.33.79,1.07,1.07,0,0,0,.79.33h4.19a11.47,11.47,0,0,1,1.76-2.88h0V22.65a1.12,1.12,0,0,0-1.13-1.12ZM30.38,30Zm11.32.84h0a.71.71,0,1,1-.71.71.71.71,0,0,1,.71-.71Zm-.11-6.67h0a.8.8,0,0,0-.8.81v5.33h0a1.54,1.54,0,0,0-.63,1.33h0a1.54,1.54,0,0,0,1.54,1.45h.09a1.59,1.59,0,0,0,.54-.13h0l3.19,2a.81.81,0,0,0,.42.12.81.81,0,0,0,.43-1.49l-3.13-1.94h0v-.16h0a1.53,1.53,0,0,0-.85-1.29h0V25a.8.8,0,0,0-.8-.81ZM6.58,30a1.13,1.13,0,0,0-1.12,1.12v3.37a1.13,1.13,0,0,0,1.12,1.13h4.83a1.12,1.12,0,0,0,1.12-1.13V31.14A1.12,1.12,0,0,0,11.41,30Zm10.19,0a1.13,1.13,0,0,0-1.13,1.12v3.37a1.13,1.13,0,0,0,1.13,1.13h4.82a1.12,1.12,0,0,0,1.12-1.13V31.14A1.12,1.12,0,0,0,21.59,30ZM27,30h0a1.11,1.11,0,0,0-.79.33,1.13,1.13,0,0,0-.33.79v3.37a1.14,1.14,0,0,0,.33.8,1.11,1.11,0,0,0,.79.33h4a11.44,11.44,0,0,1-.73-3.53A12.06,12.06,0,0,1,30.38,30ZM6.74,2.92h0C5,3,2.67,3,1.39,4.29S.09,7.9.05,9.55v0L0,32.34v0c0,1.7,0,4.1,1.3,5.39S5,39,6.63,39h0l26.42,0A11.91,11.91,0,0,1,31.7,37.1h0l-25.06,0h0c-2,0-3.38-.08-4-.68s-.69-2-.73-4h0L2,11.73H46.58v9.52h0a11.71,11.71,0,0,1,1.93,1.15V9.61c0-1.68.1-4.08-1.2-5.38S43.57,3,41.84,3h-.46V6.1a1.54,1.54,0,0,1-3.07,0V3H31.84V6.1a1.54,1.54,0,0,1-3.07,0V3H21.42V6.09a1.54,1.54,0,0,1-1.54,1.54h0a1.54,1.54,0,0,1-1.54-1.54V3l-7.79,0V6.1a1.54,1.54,0,0,1-3.08,0V2.93ZM33.05,39Zm8.66-16h0a8.51,8.51,0,0,1,.39,17h-.41a8.51,8.51,0,0,1-.39-17Zm0-1.79h0l-.49,0a10.3,10.3,0,0,0-9.81,10.77h0a10.3,10.3,0,0,0,10.28,9.81h.49a10.3,10.3,0,0,0-.47-20.59Z"/></g></g></svg>