<svg width="26" height="30" viewBox="0 0 26 30" fill="none" xmlns="http://www.w3.org/2000/svg">
<path d="M9.96666 2.84762C9.56325 2.84762 9.22533 2.71093 8.95291 2.43756C8.68049 2.16419 8.5438 1.82627 8.54285 1.42381C8.5419 1.02135 8.67859 0.683428 8.95291 0.410057C9.22723 0.136686 9.56515 0 9.96666 0H15.6619C16.0653 0 16.4037 0.136686 16.6771 0.410057C16.9504 0.683428 17.0867 1.02135 17.0857 1.42381C17.0848 1.82627 16.9481 2.16466 16.6756 2.43898C16.4032 2.7133 16.0653 2.84952 15.6619 2.84762H9.96666ZM12.8143 18.5095C13.2177 18.5095 13.5561 18.3728 13.8295 18.0995C14.1028 17.8261 14.239 17.4882 14.2381 17.0857V11.3905C14.2381 10.9871 14.1014 10.6491 13.828 10.3767C13.5547 10.1043 13.2167 9.96761 12.8143 9.96666C12.4118 9.96571 12.0739 10.1024 11.8005 10.3767C11.5272 10.651 11.3905 10.989 11.3905 11.3905V17.0857C11.3905 17.4891 11.5272 17.8275 11.8005 18.1009C12.0739 18.3743 12.4118 18.5105 12.8143 18.5095ZM12.8143 29.9C11.0582 29.9 9.40283 29.5621 7.84803 28.8862C6.29323 28.2104 4.93492 27.2906 3.77309 26.1269C2.61127 24.9632 1.69196 23.6044 1.01518 22.0505C0.338392 20.4967 0 18.8417 0 17.0857C0 15.3297 0.338392 13.6743 1.01518 12.1195C1.69196 10.5647 2.61127 9.20635 3.77309 8.04452C4.93492 6.88269 6.29371 5.96339 7.84946 5.2866C9.40521 4.60982 11.0601 4.27143 12.8143 4.27143C14.2855 4.27143 15.6975 4.50873 17.0501 4.98333C18.4027 5.45793 19.6723 6.14611 20.8588 7.04785L21.8555 6.05119C22.1165 5.79016 22.4487 5.65964 22.8521 5.65964C23.2555 5.65964 23.5878 5.79016 23.8488 6.05119C24.1098 6.31222 24.2403 6.64444 24.2403 7.04785C24.2403 7.45126 24.1098 7.78349 23.8488 8.04452L22.8521 9.04119C23.7539 10.2277 24.442 11.4973 24.9167 12.8499C25.3913 14.2025 25.6286 15.6144 25.6286 17.0857C25.6286 18.8417 25.2902 20.4972 24.6134 22.0519C23.9366 23.6067 23.0173 24.9651 21.8555 26.1269C20.6936 27.2887 19.3348 28.2085 17.7791 28.8862C16.2234 29.564 14.5684 29.9019 12.8143 29.9ZM12.8143 27.0524C15.567 27.0524 17.9163 26.0794 19.8621 24.1336C21.808 22.1877 22.7809 19.8384 22.7809 17.0857C22.7809 14.333 21.808 11.9837 19.8621 10.0379C17.9163 8.09198 15.567 7.11904 12.8143 7.11904C10.0616 7.11904 7.7123 8.09198 5.76643 10.0379C3.82055 11.9837 2.84762 14.333 2.84762 17.0857C2.84762 19.8384 3.82055 22.1877 5.76643 24.1336C7.7123 26.0794 10.0616 27.0524 12.8143 27.0524Z" fill="#0470C4"/>
</svg>
