<svg width="34" height="38" viewBox="0 0 34 38" fill="none" xmlns="http://www.w3.org/2000/svg">
<g filter="url(#filter0_d_3_37)">
<path fill-rule="evenodd" clip-rule="evenodd" d="M12.9529 2.48758C13.2253 2.76095 13.5632 2.89764 13.9667 2.89764H19.6619C20.0653 2.89953 20.4032 2.76332 20.6756 2.489C20.9481 2.21468 21.0848 1.87629 21.0857 1.47383C21.0867 1.07136 20.9504 0.733446 20.6771 0.460075C20.4037 0.186704 20.0653 0.0500183 19.6619 0.0500183H13.9667C13.5651 0.0500183 13.2272 0.186704 12.9529 0.460075C12.6786 0.733446 12.5419 1.07136 12.5429 1.47383C12.5438 1.87629 12.6805 2.21421 12.9529 2.48758ZM11.848 28.9362C13.4028 29.6121 15.0582 29.95 16.8143 29.95C18.5684 29.9519 20.2234 29.614 21.7791 28.9362C23.3348 28.2585 24.6936 27.3387 25.8555 26.1769C27.0173 25.0151 27.9366 23.6568 28.6134 22.102C29.2902 20.5472 29.6286 18.8918 29.6286 17.1357C29.6286 15.6645 29.3913 14.2525 28.9167 12.8999C28.442 11.5473 27.7539 10.2777 26.8521 9.0912L27.8488 8.09454C28.1098 7.83351 28.2403 7.50128 28.2403 7.09787C28.2403 6.69446 28.1098 6.36224 27.8488 6.1012C27.5878 5.84017 27.2555 5.70966 26.8521 5.70966C26.4487 5.70966 26.1165 5.84017 25.8555 6.1012L24.8588 7.09787C23.6723 6.19613 22.4027 5.50795 21.0501 5.03335C19.6975 4.55875 18.2855 4.32144 16.8143 4.32144C15.0601 4.32144 13.4052 4.65984 11.8495 5.33662C10.2937 6.0134 8.93492 6.93271 7.77309 8.09454C6.61127 9.25637 5.69196 10.6147 5.01518 12.1695C4.33839 13.7243 4 15.3797 4 17.1357C4 18.8918 4.33839 20.5467 5.01518 22.1005C5.69196 23.6544 6.61127 25.0132 7.77309 26.1769C8.93492 27.3406 10.2932 28.2604 11.848 28.9362ZM23.8621 24.1836C21.9163 26.1294 19.567 27.1024 16.8143 27.1024C14.0616 27.1024 11.7123 26.1294 9.76643 24.1836C7.82055 22.2377 6.84762 19.8884 6.84762 17.1357C6.84762 14.383 7.82055 12.0337 9.76643 10.0879C11.7123 8.142 14.0616 7.16906 16.8143 7.16906C19.567 7.16906 21.9163 8.142 23.8621 10.0879C25.808 12.0337 26.7809 14.383 26.7809 17.1357C26.7809 19.8884 25.808 22.2377 23.8621 24.1836Z" fill="white"/>
<path d="M16.8143 18.5595C17.2177 18.5595 17.5561 18.4228 17.8295 18.1495C18.1028 17.8761 18.239 17.5382 18.2381 17.1357V11.4405C18.2381 11.0371 18.1014 10.6992 17.828 10.4267C17.5547 10.1543 17.2167 10.0176 16.8143 10.0167C16.4118 10.0157 16.0739 10.1524 15.8005 10.4267C15.5272 10.7011 15.3905 11.039 15.3905 11.4405V17.1357C15.3905 17.5391 15.5272 17.8775 15.8005 18.1509C16.0739 18.4243 16.4118 18.5605 16.8143 18.5595Z" fill="white"/>
</g>
<defs>
<filter id="filter0_d_3_37" x="0" y="0.0500183" width="33.6286" height="37.9" filterUnits="userSpaceOnUse" color-interpolation-filters="sRGB">
<feFlood flood-opacity="0" result="BackgroundImageFix"/>
<feColorMatrix in="SourceAlpha" type="matrix" values="0 0 0 0 0 0 0 0 0 0 0 0 0 0 0 0 0 0 127 0" result="hardAlpha"/>
<feOffset dy="4"/>
<feGaussianBlur stdDeviation="2"/>
<feComposite in2="hardAlpha" operator="out"/>
<feColorMatrix type="matrix" values="0 0 0 0 0 0 0 0 0 0 0 0 0 0 0 0 0 0 0.25 0"/>
<feBlend mode="normal" in2="BackgroundImageFix" result="effect1_dropShadow_3_37"/>
<feBlend mode="normal" in="SourceGraphic" in2="effect1_dropShadow_3_37" result="shape"/>
</filter>
</defs>
</svg>
