<svg xmlns="http://www.w3.org/2000/svg" viewBox="0 0 60.79 32.6"><defs><style>.cls-1{fill:#0071bc;}</style></defs><g id="Layer_2" data-name="Layer 2"><g id="Layer_1-2" data-name="Layer 1"><path class="cls-1" d="M37.77,30.21c-.66-.54-1.26-1-1.83-1.49-2.16-1.88-4.31-3.77-6.47-5.64q-3-2.59-6-5.17c-1.14-1-2.27-2-3.49-2.87a1.87,1.87,0,0,0-2.87.91.93.93,0,0,0,.1.81,21.21,21.21,0,0,0,1.92,2c1.2,1.08,2.46,2.11,3.69,3.16,1.49,1.27,3,2.53,4.48,3.81,1.08.92,2.14,1.86,3.22,2.79q1.89,1.64,3.8,3.25c.24.2.52.36.78.54l-.17.3h-1.4a53.68,53.68,0,0,1-12-1.2A35.63,35.63,0,0,1,14.19,29,22.81,22.81,0,0,1,7.54,24.5,22.12,22.12,0,0,1,3.47,19a36.78,36.78,0,0,1-1.92-4.59A37,37,0,0,1,.35,8.65,28.07,28.07,0,0,1,.1,1.74,1.67,1.67,0,0,1,1.53.17C2.64.06,3.75,0,4.87,0A51.06,51.06,0,0,1,17.31,1.41a31.22,31.22,0,0,1,9.62,4A21.19,21.19,0,0,1,32,9.91a23.42,23.42,0,0,1,3,4.84,34,34,0,0,1,2,6.13,36.57,36.57,0,0,1,.77,9A2.64,2.64,0,0,1,37.77,30.21Z"/><path class="cls-1" d="M41.36,32.41a11.32,11.32,0,0,0,.17-2.34c-.2-1.4.61-2.15,1.54-2.91,1.2-1,2.38-2,3.55-3a30.66,30.66,0,0,0,2.31-2.09,1.4,1.4,0,0,0-.68-2.39,2.18,2.18,0,0,0-2.23.44C44.9,21.05,43.81,22,42.71,23l-1.35,1.14c-.21-1.27-.36-2.45-.62-3.6a38.67,38.67,0,0,0-1.2-4.37,1.21,1.21,0,0,1,.52-1.55A23.33,23.33,0,0,1,53,9.89a58.63,58.63,0,0,1,5.93-.14c1.23,0,1.72.56,1.8,1.79a23.94,23.94,0,0,1-.51,6.91,18.2,18.2,0,0,1-2.94,6.64,15.43,15.43,0,0,1-5.37,4.54,28.27,28.27,0,0,1-10.11,2.78A3.3,3.3,0,0,1,41.36,32.41Z"/></g></g></svg>