<svg xmlns="http://www.w3.org/2000/svg" viewBox="0 0 45.23 71.11"><defs><style>.cls-1{fill:#0071bc;}</style></defs><g id="Layer_2" data-name="Layer 2"><g id="Layer_1-2" data-name="Layer 1"><path class="cls-1" d="M11.38,2.14a2.35,2.35,0,0,1-.8-.28C10.34,1.64,10,1.31,10,1A1.22,1.22,0,0,1,10.6.22a1.85,1.85,0,0,1,1-.21h8.77c.93,0,1.55.45,1.33,1.09-.17.48-.72.82-1.09,1.23l-.24-.16c0,.92,0,1.85,0,2.77a.94.94,0,0,0,.6.6c2.51.58,5,1.11,7.54,1.68,2.13.48,3.22,1.63,3.16,3.74-.05,1.67,0,3.34,0,5a1.49,1.49,0,0,0,.55,1c1.87,1.42,3.84,2.72,5.65,4.21a44.22,44.22,0,0,1,4.94,4.63c1.47,1.66,2.87,3.54,2.25,6a3.76,3.76,0,0,1-5,2.55,8.69,8.69,0,0,1-4.84-3.6c-1.43-2.16-2.89-4.3-4.36-6.48a3.53,3.53,0,0,0-2.48,3.15,3.26,3.26,0,0,0,1.7,3.44A3.34,3.34,0,0,1,31.66,34v21.1c0,.73-.19,1.3-1.05,1.33s-1.09-.38-1.09-1.37c0-6.82,0-13.63,0-20.45a2.66,2.66,0,0,0-1.33-2.59,3.9,3.9,0,0,1-2-3.68c.06-1.24-.21-2.54.75-3.59.37-.4.68-1,1.14-1.17,1.56-.72,1.49-2,1.35-3.4H2.32c-.25,1.21-.23,2.41.89,3C5.59,24.59,5.64,26.73,5.48,29a3.48,3.48,0,0,1-1.75,3,3,3,0,0,0-1.52,3q.07,15.41,0,30.82a3.32,3.32,0,0,0,3.26,3.31c7,0,14,0,21,0a3,3,0,0,0,3.12-3.13c-.07-1.75,0-3.52,0-5.27,0-.76.22-1.3,1.06-1.3s1.08.55,1.08,1.29c0,1.73-.07,3.46,0,5.19a4.93,4.93,0,0,1-5.1,5.22c-7.08.08-14.15.06-21.22,0A5.3,5.3,0,0,1,0,65.54c.07-10.37,0-20.73,0-31.1a4.53,4.53,0,0,1,2.38-4.06c.07,0,.17-.05.25-.1,1.17-.85.88-4.35-.35-5.11A4.22,4.22,0,0,1,0,21.43c0-3.55,0-7.1,0-10.64a3.49,3.49,0,0,1,2.6-3.37c2.65-.63,5.32-1.22,8-1.78.6-.12.81-.36.78-1C11.35,3.84,11.38,3,11.38,2.14ZM29.52,14.05v-2.6c0-1.78-.21-2-2-2.39C25.39,8.6,23.26,8,21.09,7.67a23.68,23.68,0,0,0-6.3-.51C11,7.6,7.31,8.47,3.6,9.25a2,2,0,0,0-1.3,1.2,22.47,22.47,0,0,0-.06,3.6c1.12,0,2.16,0,3.19,0,.66,0,1.34.18,1.37.93s-.71,1-1.37,1a11.09,11.09,0,0,1-1.29,0c-.6,0-1.21,0-1.86,0v2H29.47c0-.23.05-.38.05-.53,0-1.75.18-1.5-1.43-1.5H11.59c-1.23,0-1.83-.35-1.73-1,.14-1,1-.94,1.71-.94h18Zm2.27,5a3.76,3.76,0,0,0,.41,3c1.22,2,2.44,4.07,3.73,6.06a12.36,12.36,0,0,0,2.21,2.79,8.35,8.35,0,0,0,3,1.57c1.09.31,1.9-.52,1.85-1.67a5.73,5.73,0,0,0-1.9-3.75c-1.9-1.94-3.93-3.75-6-5.54C34.13,20.65,33,19.91,31.79,19ZM18.1,2.1H13.61v3H18.1Z"/><path class="cls-1" d="M25.38,49.89c0,3.76,0,7.53,0,11.29,0,2.14-1.07,3.27-3.21,3.28-4.15,0-8.3,0-12.45,0A3.32,3.32,0,0,1,6.31,61c0-7.46,0-14.93,0-22.39a3.2,3.2,0,0,1,3.21-3.39c4.28,0,8.55,0,12.83,0a3,3,0,0,1,3.05,3.18C25.31,42.24,25.38,46.06,25.38,49.89Zm-16.68,0V61.24c0,1,.25,1.26,1.25,1.26,4,0,7.93,0,11.89,0,1.18,0,1.39-.25,1.39-1.43V38.6c0-1.17-.22-1.38-1.42-1.38H10.11c-1.25,0-1.41.17-1.41,1.46Z"/><path class="cls-1" d="M15.88,46.65h2.85c.67,0,1.18.25,1.21,1s-.51,1-1.21,1H13c-.68,0-1.27-.19-1.26-1s.55-1,1.26-1Z"/><path class="cls-1" d="M15.87,43.51h-3a.9.9,0,0,1-1.05-.9.92.92,0,0,1,1-1.08c2.05,0,4.1,0,6.16,0a1,1,0,0,1,1,1.07.92.92,0,0,1-1,.93h-3Z"/><path class="cls-1" d="M15.9,51.81h3c.64,0,1.08.28,1.1,1s-.45,1-1.08,1c-2,0-4,0-6,0-.67,0-1.16-.3-1.1-1.06s.53-.9,1.16-.89Z"/><path class="cls-1" d="M15.85,58.89H12.9c-.65,0-1.09-.26-1.12-.94s.4-1,1.05-1c2,0,4.06,0,6.09,0a.9.9,0,0,1,1,.93.94.94,0,0,1-1.05,1Z"/></g></g></svg>