<svg xmlns="http://www.w3.org/2000/svg" viewBox="0 0 44.07 42.11"><defs><style>.cls-1{fill:#0071bc;}</style></defs><g id="Layer_2" data-name="Layer 2"><g id="Layer_1-2" data-name="Layer 1"><path class="cls-1" d="M22,42.09H4.55a4.9,4.9,0,0,1-3-.89,3.46,3.46,0,0,1-1.4-2.31A7.09,7.09,0,0,1,0,37.58Q0,20.95,0,4.3A4.19,4.19,0,0,1,.78,1.56,4.51,4.51,0,0,1,4.47,0h35a4.74,4.74,0,0,1,2.57.6,3.54,3.54,0,0,1,1.78,2.74c.11,1.26.21,2.53.21,3.79,0,10.16,0,20.33,0,30.49a4,4,0,0,1-2.23,4,6.47,6.47,0,0,1-2.39.46c-5.81,0-11.62,0-17.43,0ZM35.11,11.32a2.59,2.59,0,0,0-.51-.74c-1.13-.86-2.26-1.72-3.46-2.47a16.39,16.39,0,0,0-6.89-2.28,18.34,18.34,0,0,0-9.93,1.52,17.06,17.06,0,0,0-4.85,3.21c-.78.74-.78,1,0,1.79l.16.15,2.33,2.22c1,.92,1.92,1.85,2.88,2.76a1,1,0,0,0,1.47.15c.58-.36,1.15-.76,1.7-1.17a.47.47,0,0,0,.11-.44c-.56-1.2-1.1-2.41-1.74-3.57-.45-.84-.41-1.47.29-1.75a.92.92,0,0,1,1.29.55c.64,1.31,1.27,2.61,1.89,3.93.16.36.31.5.76.42a8.18,8.18,0,0,1,6.89,1.85,1.22,1.22,0,0,0,1.92-.07l4.19-4.08c.1-.1.24-.16.34-.26C34.37,12.57,35,12.21,35.11,11.32Z"/></g></g></svg>