<svg xmlns="http://www.w3.org/2000/svg" viewBox="0 0 35 35"><defs><style>.cls-1{fill:#fff;}</style></defs><g id="Layer_2" data-name="Layer 2"><g id="Layer_1-2" data-name="Layer 1"><path class="cls-1" d="M18.34,0a5.32,5.32,0,0,1,2.11,1.52c4.49,4.51,9,9,13.48,13.52a3.46,3.46,0,0,1,.78,1.06,3.2,3.2,0,0,1-2.83,4.59h-.6V31.16A3.8,3.8,0,0,1,27.41,35H22.07a1.06,1.06,0,0,1-1.18-1.18V25.91A1.75,1.75,0,0,0,19,24H16a1.73,1.73,0,0,0-1.88,1.9v7.84c0,.89-.38,1.27-1.27,1.27H7.69a3.76,3.76,0,0,1-3.92-3.92q0-5,0-9.93v-.43a9.92,9.92,0,0,1-1.12-.1A3.08,3.08,0,0,1,.18,18.49a3.13,3.13,0,0,1,.64-3.17c.11-.12.22-.23.34-.34L14.53,1.59A5.42,5.42,0,0,1,16.7,0Zm4.6,32.94h.42c1.27,0,2.53,0,3.8,0a1.88,1.88,0,0,0,2.08-2.07c0-3.66,0-7.33,0-11,0-.89.38-1.26,1.27-1.27.45,0,.89,0,1.34,0a1.16,1.16,0,0,0,.86-1.92c-.09-.11-.2-.21-.3-.32L18.56,2.54a1.24,1.24,0,0,0-2.07,0L4.11,14.93c-.58.57-1.16,1.14-1.72,1.72a1.1,1.1,0,0,0-.23,1.27,1.1,1.1,0,0,0,1.07.71c.43,0,.86,0,1.3,0,.91,0,1.29.38,1.29,1.29v11.2a1.71,1.71,0,0,0,1.82,1.82c1.37,0,2.75,0,4.13,0l.33,0V32.5c0-2.24,0-4.47,0-6.71A3.7,3.7,0,0,1,15.69,22c1.21-.07,2.44,0,3.66,0A2.41,2.41,0,0,1,20,22a3.74,3.74,0,0,1,3,3.75c0,2.24,0,4.47,0,6.71Z"/></g></g></svg>