<svg xmlns="http://www.w3.org/2000/svg" viewBox="0 0 14.96 19.83"><defs><style>.cls-1{fill:#0071bc;}</style></defs><g id="Layer_2" data-name="Layer 2"><g id="Layer_1-2" data-name="Layer 1"><path class="cls-1" d="M15,9.41a3.07,3.07,0,0,1-.85,2.31q-1.95,2-4.29,4T5.73,19.15a2.88,2.88,0,0,1-2.2.67,2.89,2.89,0,0,1-2-1.08,2.93,2.93,0,0,1-.67-2.18,2.86,2.86,0,0,1,1-2C2.34,14.15,3,13.64,3.73,13s1.45-1.21,2-1.71L7.43,9.85Q4.64,7.75,1.32,5.5A2.85,2.85,0,0,1,.05,3.57,3,3,0,0,1,.52,1.31,2.81,2.81,0,0,1,2.42.05,3,3,0,0,1,4.68.52Q9.7,4,13.85,7.26A2.86,2.86,0,0,1,15,9.41Z"/></g></g></svg>