<svg xmlns="http://www.w3.org/2000/svg" viewBox="0 0 14.96 19.83"><defs><style>.cls-1{fill:#0071bc;}</style></defs><g id="Layer_2" data-name="Layer 2"><g id="Layer_1-2" data-name="Layer 1"><path class="cls-1" d="M0,9.41a3,3,0,0,0,.86,2.31q1.94,2,4.28,4c1.57,1.34,2.93,2.49,4.1,3.44a3,3,0,0,0,4.21-.41,3,3,0,0,0-.37-4.21c-.45-.38-1.07-.89-1.85-1.52s-1.45-1.21-2-1.71-1.12-1-1.68-1.45C9.4,8.45,11.43,7,13.64,5.5a2.85,2.85,0,0,0,1.27-1.93,3,3,0,0,0-.47-2.26A2.81,2.81,0,0,0,12.54.05a3,3,0,0,0-2.26.47Q5.27,4,1.12,7.26A2.84,2.84,0,0,0,0,9.41Z"/></g></g></svg>