<svg xmlns="http://www.w3.org/2000/svg" viewBox="0 0 125.99 125.81"><defs><style>.cls-1{fill:#006bd4;}</style></defs><g id="Layer_2" data-name="Layer 2"><g id="Layer_1-2" data-name="Layer 1"><path class="cls-1" d="M62.73,125.79c-10.67,0-21.33.07-32,0C12.71,125.62.25,113.3.12,95.23Q-.12,63,.11,30.71C.24,12.61,12.66.2,30.66.1q32.49-.18,65,0c18,.12,30.27,12.72,30.32,30.77q.08,32,0,64c0,18.29-12.45,30.75-30.74,30.87C84.39,125.85,73.56,125.79,62.73,125.79ZM24,101.93c2.94-.35,5.05-.53,7.13-.87,8.15-1.31,15.89-1.9,24.4.39,25.77,6.93,51.25-14.84,48.94-41C103,43.84,94.53,31.74,79,25.79s-30.09-3.13-42.08,8.5S22,60.5,27,76.62a18.32,18.32,0,0,1,.46,7.7C26.59,89.91,25.29,95.42,24,101.93Z"/><path class="cls-1" d="M31.53,94.79c.79-4.21,1.28-7.79,2.16-11.28A12.48,12.48,0,0,0,33,75.33a34,34,0,0,1,45.5-43.48A34.14,34.14,0,0,1,98.66,63.77C98.1,86.71,75,102.85,53.43,94.93a23.13,23.13,0,0,0-13-1.26C37.71,94.2,34.93,94.38,31.53,94.79Zm21-36.31c5.29-4.63,5.29-4.62,2.45-10.89-.21-.45-.36-.94-.57-1.38-2.23-4.62-5.91-5-9.3-1.07-3.25,3.81-4,10.74-1.37,15.56A49.64,49.64,0,0,0,66.67,82.26a14,14,0,0,0,13.46-.65c4.94-2.82,4.91-7,.08-9.84-1-.59-2.06-1.09-3-1.71-2.77-1.71-5.29-2.13-7.18,1.22-1.08,1.9-2.52,1.91-4.19.79A41.16,41.16,0,0,1,52.53,58.48Z"/></g></g></svg>